<svg fill="#f8f8f8" t="1555333791341" class="icon" style="" viewBox="0 0 1024 1024" version="1.1" xmlns="http://www.w3.org/2000/svg" p-id="710" width="64" height="64" xmlns:xlink="http://www.w3.org/1999/xlink">
                    <defs><style type="text/css"></style></defs>
                    <path d="M914.3296 307.2V849.92a40.96 40.96 0 0 1-40.96 40.96h-542.72a40.96 40.96 0 0 1-40.96-40.96v-542.72a40.96 40.96 0 0 1 40.96-40.96h542.72a40.96 40.96 0 0 1 40.96 40.96z m-122.88-133.12a40.96 40.96 0 0 0-40.96-40.96h-542.72a40.96 40.96 0 0 0-40.96 40.96v542.72a40.96 40.96 0 0 0 81.92 0V215.04h501.76a40.96 40.96 0 0 0 40.96-40.96z" p-id="711"></path></svg>